<svg width="1920" height="1630" viewBox="0 0 1920 1630" fill="none" xmlns="http://www.w3.org/2000/svg">
<g clip-path="url(#clip0_23_3730)">
<rect width="1920" height="815" fill="#F6F4FF"/>
<path d="M1459.47 -382H1393V-323.493M1459.47 -382V-323.493M1459.47 -382H1525.94M1459.47 -323.493H1393M1459.47 -323.493H1525.94M1459.47 -323.493V-264.986M1393 -323.493V-264.986M1525.94 -382V-323.493M1525.94 -382H1592.41M1525.94 -323.493H1592.41M1525.94 -323.493V-264.986M1592.41 -382V-323.493M1592.41 -382H1658.88M1592.41 -323.493H1658.88M1592.41 -323.493V-264.986M1658.88 -382V-323.493M1658.88 -382H1725.35M1658.88 -323.493H1725.35M1658.88 -323.493V-264.986M1725.35 -382V-323.493M1725.35 -382H1791.82M1725.35 -323.493H1791.82M1725.35 -323.493V-264.986M1791.82 -382V-323.493M1791.82 -382H1858.29M1791.82 -323.493H1858.29M1791.82 -323.493V-264.986M1858.29 -382V-323.493M1858.29 -382H1924.76M1858.29 -323.493H1924.76M1858.29 -323.493V-264.986M1924.76 -382V-323.493M1924.76 -382H1991.24M1924.76 -323.493H1991.24M1924.76 -323.493V-264.986M1991.24 -382V-323.493M1991.24 -382H2057.71M1991.24 -323.493H2057.71M1991.24 -323.493V-264.986M2057.71 -382V-323.493M2057.71 -382H2124.18M2057.71 -323.493H2124.18M2057.71 -323.493V-264.986M2124.18 -382V-323.493M2124.18 -382H2190.65M2124.18 -323.493H2190.65M2124.18 -323.493V-264.986M2190.65 -382V-323.493M2190.65 -382H2257.12M2190.65 -323.493H2257.12M2190.65 -323.493V-264.986M2257.12 -382V-323.493M2257.12 -382H2323.59M2257.12 -323.493H2323.59M2257.12 -323.493V-264.986M2323.59 -382V-323.493M2323.59 -382H2390.06M2323.59 -323.493H2390.06M2323.59 -323.493V-264.986M2390.06 -382V-323.493M2390.06 -382H2456.53M2390.06 -323.493H2456.53M2390.06 -323.493V-264.986M2456.53 -382V-323.493M2456.53 -382H2523V-323.493M2456.53 -323.493H2523M2456.53 -323.493V-264.986M2523 -323.493V-264.986M1459.47 -264.986H1393M1459.47 -264.986H1525.94M1459.47 -264.986V-206.479M1393 -264.986V-206.479M1525.94 -264.986H1592.41M1525.94 -264.986V-206.479M1592.41 -264.986H1658.88M1592.41 -264.986V-206.479M1658.88 -264.986H1725.35M1658.88 -264.986V-206.479M1725.35 -264.986H1791.82M1725.35 -264.986V-206.479M1791.82 -264.986H1858.29M1791.82 -264.986V-206.479M1858.29 -264.986H1924.76M1858.29 -264.986V-206.479M1924.76 -264.986H1991.24M1924.76 -264.986V-206.479M1991.24 -264.986H2057.71M1991.24 -264.986V-206.479M2057.71 -264.986H2124.18M2057.71 -264.986V-206.479M2124.18 -264.986H2190.65M2124.18 -264.986V-206.479M2190.65 -264.986H2257.12M2190.65 -264.986V-206.479M2257.12 -264.986H2323.59M2257.12 -264.986V-206.479M2323.59 -264.986H2390.06M2323.59 -264.986V-206.479M2390.06 -264.986H2456.53M2390.06 -264.986V-206.479M2456.53 -264.986H2523M2456.53 -264.986V-206.479M2523 -264.986V-206.479M1459.47 -206.479H1393M1459.47 -206.479H1525.94M1459.47 -206.479V-147.972M1393 -206.479V-147.972M1525.94 -206.479H1592.41M1525.94 -206.479V-147.972M1592.41 -206.479H1658.88M1592.41 -206.479V-147.972M1658.88 -206.479H1725.35M1658.88 -206.479V-147.972M1725.35 -206.479H1791.82M1725.35 -206.479V-147.972M1791.82 -206.479H1858.29M1791.82 -206.479V-147.972M1858.29 -206.479H1924.76M1858.29 -206.479V-147.972M1924.76 -206.479H1991.24M1924.76 -206.479V-147.972M1991.24 -206.479H2057.71M1991.24 -206.479V-147.972M2057.71 -206.479H2124.18M2057.71 -206.479V-147.972M2124.18 -206.479H2190.65M2124.18 -206.479V-147.972M2190.65 -206.479H2257.12M2190.65 -206.479V-147.972M2257.12 -206.479H2323.59M2257.12 -206.479V-147.972M2323.59 -206.479H2390.06M2323.59 -206.479V-147.972M2390.06 -206.479H2456.53M2390.06 -206.479V-147.972M2456.53 -206.479H2523M2456.53 -206.479V-147.972M2523 -206.479V-147.972M1459.47 -147.972H1393M1459.47 -147.972H1525.94M1459.47 -147.972V-89.4652M1393 -147.972V-89.4652M1525.94 -147.972H1592.41M1525.94 -147.972V-89.4652M1592.41 -147.972H1658.88M1592.41 -147.972V-89.4652M1658.88 -147.972H1725.35M1658.88 -147.972V-89.4652M1725.35 -147.972H1791.82M1725.35 -147.972V-89.4652M1791.82 -147.972H1858.29M1791.82 -147.972V-89.4652M1858.29 -147.972H1924.76M1858.29 -147.972V-89.4652M1924.76 -147.972H1991.24M1924.76 -147.972V-89.4652M1991.24 -147.972H2057.71M1991.24 -147.972V-89.4652M2057.71 -147.972H2124.18M2057.71 -147.972V-89.4652M2124.18 -147.972H2190.65M2124.18 -147.972V-89.4652M2190.65 -147.972H2257.12M2190.65 -147.972V-89.4652M2257.12 -147.972H2323.59M2257.12 -147.972V-89.4652M2323.59 -147.972H2390.06M2323.59 -147.972V-89.4652M2390.06 -147.972H2456.53M2390.06 -147.972V-89.4652M2456.53 -147.972H2523M2456.53 -147.972V-89.4652M2523 -147.972V-89.4652M1459.47 -89.4652H1393M1459.47 -89.4652H1525.94M1459.47 -89.4652V-30.9583M1393 -89.4652V-30.9583M1525.94 -89.4652H1592.41M1525.94 -89.4652V-30.9583M1592.41 -89.4652H1658.88M1592.41 -89.4652V-30.9583M1658.88 -89.4652H1725.35M1658.88 -89.4652V-30.9583M1725.35 -89.4652H1791.82M1725.35 -89.4652V-30.9583M1791.82 -89.4652H1858.29M1791.82 -89.4652V-30.9583M1858.29 -89.4652H1924.76M1858.29 -89.4652V-30.9583M1924.76 -89.4652H1991.24M1924.76 -89.4652V-30.9583M1991.24 -89.4652H2057.71M1991.24 -89.4652V-30.9583M2057.71 -89.4652H2124.18M2057.71 -89.4652V-30.9583M2124.18 -89.4652H2190.65M2124.18 -89.4652V-30.9583M2190.65 -89.4652H2257.12M2190.65 -89.4652V-30.9583M2257.12 -89.4652H2323.59M2257.12 -89.4652V-30.9583M2323.59 -89.4652H2390.06M2323.59 -89.4652V-30.9583M2390.06 -89.4652H2456.53M2390.06 -89.4652V-30.9583M2456.53 -89.4652H2523M2456.53 -89.4652V-30.9583M2523 -89.4652V-30.9583M1459.47 -30.9583H1393M1459.47 -30.9583H1525.94M1459.47 -30.9583V27.5487M1393 -30.9583V27.5487M1525.94 -30.9583H1592.41M1525.94 -30.9583V27.5487M1592.41 -30.9583H1658.88M1592.41 -30.9583V27.5487M1658.88 -30.9583H1725.35M1658.88 -30.9583V27.5487M1725.35 -30.9583H1791.82M1725.35 -30.9583V27.5487M1791.82 -30.9583H1858.29M1791.82 -30.9583V27.5487M1858.29 -30.9583H1924.76M1858.29 -30.9583V27.5487M1924.76 -30.9583H1991.24M1924.76 -30.9583V27.5487M1991.24 -30.9583H2057.71M1991.24 -30.9583V27.5487M2057.71 -30.9583H2124.18M2057.71 -30.9583V27.5487M2124.18 -30.9583H2190.65M2124.18 -30.9583V27.5487M2190.65 -30.9583H2257.12M2190.65 -30.9583V27.5487M2257.12 -30.9583H2323.59M2257.12 -30.9583V27.5487M2323.59 -30.9583H2390.06M2323.59 -30.9583V27.5487M2390.06 -30.9583H2456.53M2390.06 -30.9583V27.5487M2456.53 -30.9583H2523M2456.53 -30.9583V27.5487M2523 -30.9583V27.5487M1459.47 27.5487H1393M1459.47 27.5487H1525.94M1459.47 27.5487V86.0556M1393 27.5487V86.0556M1525.94 27.5487H1592.41M1525.94 27.5487V86.0556M1592.41 27.5487H1658.88M1592.41 27.5487V86.0556M1658.88 27.5487H1725.35M1658.88 27.5487V86.0556M1725.35 27.5487H1791.82M1725.35 27.5487V86.0556M1791.82 27.5487H1858.29M1791.82 27.5487V86.0556M1858.29 27.5487H1924.76M1858.29 27.5487V86.0556M1924.76 27.5487H1991.24M1924.76 27.5487V86.0556M1991.24 27.5487H2057.71M1991.24 27.5487V86.0556M2057.71 27.5487H2124.18M2057.71 27.5487V86.0556M2124.18 27.5487H2190.65M2124.18 27.5487V86.0556M2190.65 27.5487H2257.12M2190.65 27.5487V86.0556M2257.12 27.5487H2323.59M2257.12 27.5487V86.0556M2323.59 27.5487H2390.06M2323.59 27.5487V86.0556M2390.06 27.5487H2456.53M2390.06 27.5487V86.0556M2456.53 27.5487H2523M2456.53 27.5487V86.0556M2523 27.5487V86.0556M1459.47 86.0556H1393M1459.47 86.0556H1525.94M1459.47 86.0556V144.563M1393 86.0556V144.563M1525.94 86.0556H1592.41M1525.94 86.0556V144.563M1592.41 86.0556H1658.88M1592.41 86.0556V144.563M1658.88 86.0556H1725.35M1658.88 86.0556V144.563M1725.35 86.0556H1791.82M1725.35 86.0556V144.563M1791.82 86.0556H1858.29M1791.82 86.0556V144.563M1858.29 86.0556H1924.76M1858.29 86.0556V144.563M1924.76 86.0556H1991.24M1924.76 86.0556V144.563M1991.24 86.0556H2057.71M1991.24 86.0556V144.563M2057.71 86.0556H2124.18M2057.71 86.0556V144.563M2124.18 86.0556H2190.65M2124.18 86.0556V144.563M2190.65 86.0556H2257.12M2190.65 86.0556V144.563M2257.12 86.0556H2323.59M2257.12 86.0556V144.563M2323.59 86.0556H2390.06M2323.59 86.0556V144.563M2390.06 86.0556H2456.53M2390.06 86.0556V144.563M2456.53 86.0556H2523M2456.53 86.0556V144.563M2523 86.0556V144.563M1459.47 144.563H1393M1459.47 144.563H1525.94M1459.47 144.563V203.07M1393 144.563V203.07M1525.94 144.563H1592.41M1525.94 144.563V203.07M1592.41 144.563H1658.88M1592.41 144.563V203.07M1658.88 144.563H1725.35M1658.88 144.563V203.07M1725.35 144.563H1791.82M1725.35 144.563V203.07M1791.82 144.563H1858.29M1791.82 144.563V203.07M1858.29 144.563H1924.76M1858.29 144.563V203.07M1924.76 144.563H1991.24M1924.76 144.563V203.07M1991.24 144.563H2057.71M1991.24 144.563V203.07M2057.71 144.563H2124.18M2057.71 144.563V203.07M2124.18 144.563H2190.65M2124.18 144.563V203.07M2190.65 144.563H2257.12M2190.65 144.563V203.07M2257.12 144.563H2323.59M2257.12 144.563V203.07M2323.59 144.563H2390.06M2323.59 144.563V203.07M2390.06 144.563H2456.53M2390.06 144.563V203.07M2456.53 144.563H2523M2456.53 144.563V203.07M2523 144.563V203.07M1459.47 203.07H1393M1459.47 203.07H1525.94M1459.47 203.07V261.576M1393 203.07V261.576M1525.94 203.07H1592.41M1525.94 203.07V261.576M1592.41 203.07H1658.88M1592.41 203.07V261.576M1658.88 203.07H1725.35M1658.88 203.07V261.576M1725.35 203.07H1791.82M1725.35 203.07V261.576M1791.82 203.07H1858.29M1791.82 203.07V261.576M1858.29 203.07H1924.76M1858.29 203.07V261.576M1924.76 203.07H1991.24M1924.76 203.07V261.576M1991.24 203.07H2057.71M1991.24 203.07V261.576M2057.71 203.07H2124.18M2057.71 203.07V261.576M2124.18 203.07H2190.65M2124.18 203.07V261.576M2190.65 203.07H2257.12M2190.65 203.07V261.576M2257.12 203.07H2323.59M2257.12 203.07V261.576M2323.59 203.07H2390.06M2323.59 203.07V261.576M2390.06 203.07H2456.53M2390.06 203.07V261.576M2456.53 203.07H2523M2456.53 203.07V261.576M2523 203.07V261.576M1459.47 261.576H1393M1459.47 261.576H1525.94M1459.47 261.576V320.083M1393 261.576V320.083H1459.47M1525.94 261.576H1592.41M1525.94 261.576V320.083M1592.41 261.576H1658.88M1592.41 261.576V320.083M1658.88 261.576H1725.35M1658.88 261.576V320.083M1725.35 261.576H1791.82M1725.35 261.576V320.083M1791.82 261.576H1858.29M1791.82 261.576V320.083M1858.29 261.576H1924.76M1858.29 261.576V320.083M1924.76 261.576H1991.24M1924.76 261.576V320.083M1991.24 261.576H2057.71M1991.24 261.576V320.083M2057.71 261.576H2124.18M2057.71 261.576V320.083M2124.18 261.576H2190.65M2124.18 261.576V320.083M2190.65 261.576H2257.12M2190.65 261.576V320.083M2257.12 261.576H2323.59M2257.12 261.576V320.083M2323.59 261.576H2390.06M2323.59 261.576V320.083M2390.06 261.576H2456.53M2390.06 261.576V320.083M2456.53 261.576H2523M2456.53 261.576V320.083M2523 261.576V320.083H2456.53M1459.47 320.083H1525.94M1525.94 320.083H1592.41M1592.41 320.083H1658.88M1658.88 320.083H1725.35M1725.35 320.083H1791.82M1791.82 320.083H1858.29M1858.29 320.083H1924.76M1924.76 320.083H1991.24M1991.24 320.083H2057.71M2057.71 320.083H2124.18M2124.18 320.083H2190.65M2190.65 320.083H2257.12M2257.12 320.083H2323.59M2323.59 320.083H2390.06M2390.06 320.083H2456.53" stroke="url(#paint0_radial_23_3730)" stroke-opacity="0.7" stroke-width="1.49321"/>
<g filter="url(#filter0_f_23_3730)">
<circle cx="-583.5" cy="-19.5" r="357.5" fill="#FFA2FC" fill-opacity="0.09"/>
</g>
<g filter="url(#filter1_f_23_3730)">
<circle cx="-492" cy="-136" r="389" fill="#E6C8FF" fill-opacity="0.33"/>
</g>
<g filter="url(#filter2_f_23_3730)">
<circle cx="60.5" cy="598.5" r="140.5" fill="#C2BDFF" fill-opacity="0.69"/>
</g>
<g filter="url(#filter3_f_23_3730)">
<circle cx="256.5" cy="629.5" r="140.5" fill="#D9AFFA" fill-opacity="0.25"/>
</g>
<g filter="url(#filter4_f_23_3730)">
<circle cx="307.5" cy="563.5" r="140.5" fill="#E9E7C6" fill-opacity="0.06"/>
</g>
<g filter="url(#filter5_f_23_3730)">
<circle cx="168" cy="168" r="168" transform="matrix(-1 0 0 1 2145 241)" fill="#C2BDFF" fill-opacity="0.31"/>
</g>
<g filter="url(#filter6_f_23_3730)">
<circle cx="168" cy="168" r="168" transform="matrix(-1 0 0 1 1858 320)" fill="#E9E7C6" fill-opacity="0.13"/>
</g>
<g filter="url(#filter7_f_23_3730)">
<ellipse cx="168.5" cy="168" rx="168.5" ry="168" transform="matrix(-1 0 0 1 1947 436)" fill="#E3BFFF" fill-opacity="0.13"/>
</g>
</g>
<g clip-path="url(#clip1_23_3730)">
<rect width="1920" height="815" transform="translate(0 815)" fill="#F6F4FF"/>
<path d="M1716.47 325H1650V383.507M1716.47 325V383.507M1716.47 325H1782.94M1716.47 383.507H1650M1716.47 383.507H1782.94M1716.47 383.507V442.014M1650 383.507V442.014M1782.94 325V383.507M1782.94 325H1849.41M1782.94 383.507H1849.41M1782.94 383.507V442.014M1849.41 325V383.507M1849.41 325H1915.88M1849.41 383.507H1915.88M1849.41 383.507V442.014M1915.88 325V383.507M1915.88 325H1982.35M1915.88 383.507H1982.35M1915.88 383.507V442.014M1982.35 325V383.507M1982.35 325H2048.82M1982.35 383.507H2048.82M1982.35 383.507V442.014M2048.82 325V383.507M2048.82 325H2115.29M2048.82 383.507H2115.29M2048.82 383.507V442.014M2115.29 325V383.507M2115.29 325H2181.76M2115.29 383.507H2181.76M2115.29 383.507V442.014M2181.76 325V383.507M2181.76 325H2248.24M2181.76 383.507H2248.24M2181.76 383.507V442.014M2248.24 325V383.507M2248.24 325H2314.71M2248.24 383.507H2314.71M2248.24 383.507V442.014M2314.71 325V383.507M2314.71 325H2381.18M2314.71 383.507H2381.18M2314.71 383.507V442.014M2381.18 325V383.507M2381.18 325H2447.65M2381.18 383.507H2447.65M2381.18 383.507V442.014M2447.65 325V383.507M2447.65 325H2514.12M2447.65 383.507H2514.12M2447.65 383.507V442.014M2514.12 325V383.507M2514.12 325H2580.59M2514.12 383.507H2580.59M2514.12 383.507V442.014M2580.59 325V383.507M2580.59 325H2647.06M2580.59 383.507H2647.06M2580.59 383.507V442.014M2647.06 325V383.507M2647.06 325H2713.53M2647.06 383.507H2713.53M2647.06 383.507V442.014M2713.53 325V383.507M2713.53 325H2780V383.507M2713.53 383.507H2780M2713.53 383.507V442.014M2780 383.507V442.014M1716.47 442.014H1650M1716.47 442.014H1782.94M1716.47 442.014V500.521M1650 442.014V500.521M1782.94 442.014H1849.41M1782.94 442.014V500.521M1849.41 442.014H1915.88M1849.41 442.014V500.521M1915.88 442.014H1982.35M1915.88 442.014V500.521M1982.35 442.014H2048.82M1982.35 442.014V500.521M2048.82 442.014H2115.29M2048.82 442.014V500.521M2115.29 442.014H2181.76M2115.29 442.014V500.521M2181.76 442.014H2248.24M2181.76 442.014V500.521M2248.24 442.014H2314.71M2248.24 442.014V500.521M2314.71 442.014H2381.18M2314.71 442.014V500.521M2381.18 442.014H2447.65M2381.18 442.014V500.521M2447.65 442.014H2514.12M2447.65 442.014V500.521M2514.12 442.014H2580.59M2514.12 442.014V500.521M2580.59 442.014H2647.06M2580.59 442.014V500.521M2647.06 442.014H2713.53M2647.06 442.014V500.521M2713.53 442.014H2780M2713.53 442.014V500.521M2780 442.014V500.521M1716.47 500.521H1650M1716.47 500.521H1782.94M1716.47 500.521V559.028M1650 500.521V559.028M1782.94 500.521H1849.41M1782.94 500.521V559.028M1849.41 500.521H1915.88M1849.41 500.521V559.028M1915.88 500.521H1982.35M1915.88 500.521V559.028M1982.35 500.521H2048.82M1982.35 500.521V559.028M2048.82 500.521H2115.29M2048.82 500.521V559.028M2115.29 500.521H2181.76M2115.29 500.521V559.028M2181.76 500.521H2248.24M2181.76 500.521V559.028M2248.24 500.521H2314.71M2248.24 500.521V559.028M2314.71 500.521H2381.18M2314.71 500.521V559.028M2381.18 500.521H2447.65M2381.18 500.521V559.028M2447.65 500.521H2514.12M2447.65 500.521V559.028M2514.12 500.521H2580.59M2514.12 500.521V559.028M2580.59 500.521H2647.06M2580.59 500.521V559.028M2647.06 500.521H2713.53M2647.06 500.521V559.028M2713.53 500.521H2780M2713.53 500.521V559.028M2780 500.521V559.028M1716.47 559.028H1650M1716.47 559.028H1782.94M1716.47 559.028V617.535M1650 559.028V617.535M1782.94 559.028H1849.41M1782.94 559.028V617.535M1849.41 559.028H1915.88M1849.41 559.028V617.535M1915.88 559.028H1982.35M1915.88 559.028V617.535M1982.35 559.028H2048.82M1982.35 559.028V617.535M2048.82 559.028H2115.29M2048.82 559.028V617.535M2115.29 559.028H2181.76M2115.29 559.028V617.535M2181.76 559.028H2248.24M2181.76 559.028V617.535M2248.24 559.028H2314.71M2248.24 559.028V617.535M2314.71 559.028H2381.18M2314.71 559.028V617.535M2381.18 559.028H2447.65M2381.18 559.028V617.535M2447.65 559.028H2514.12M2447.65 559.028V617.535M2514.12 559.028H2580.59M2514.12 559.028V617.535M2580.59 559.028H2647.06M2580.59 559.028V617.535M2647.06 559.028H2713.53M2647.06 559.028V617.535M2713.53 559.028H2780M2713.53 559.028V617.535M2780 559.028V617.535M1716.47 617.535H1650M1716.47 617.535H1782.94M1716.47 617.535V676.042M1650 617.535V676.042M1782.94 617.535H1849.41M1782.94 617.535V676.042M1849.41 617.535H1915.88M1849.41 617.535V676.042M1915.88 617.535H1982.35M1915.88 617.535V676.042M1982.35 617.535H2048.82M1982.35 617.535V676.042M2048.82 617.535H2115.29M2048.82 617.535V676.042M2115.29 617.535H2181.76M2115.29 617.535V676.042M2181.76 617.535H2248.24M2181.76 617.535V676.042M2248.24 617.535H2314.71M2248.24 617.535V676.042M2314.71 617.535H2381.18M2314.71 617.535V676.042M2381.18 617.535H2447.65M2381.18 617.535V676.042M2447.65 617.535H2514.12M2447.65 617.535V676.042M2514.12 617.535H2580.59M2514.12 617.535V676.042M2580.59 617.535H2647.06M2580.59 617.535V676.042M2647.06 617.535H2713.53M2647.06 617.535V676.042M2713.53 617.535H2780M2713.53 617.535V676.042M2780 617.535V676.042M1716.47 676.042H1650M1716.47 676.042H1782.94M1716.47 676.042V734.549M1650 676.042V734.549M1782.94 676.042H1849.41M1782.94 676.042V734.549M1849.41 676.042H1915.88M1849.41 676.042V734.549M1915.88 676.042H1982.35M1915.88 676.042V734.549M1982.35 676.042H2048.82M1982.35 676.042V734.549M2048.82 676.042H2115.29M2048.82 676.042V734.549M2115.29 676.042H2181.76M2115.29 676.042V734.549M2181.76 676.042H2248.24M2181.76 676.042V734.549M2248.24 676.042H2314.71M2248.24 676.042V734.549M2314.71 676.042H2381.18M2314.71 676.042V734.549M2381.18 676.042H2447.65M2381.18 676.042V734.549M2447.65 676.042H2514.12M2447.65 676.042V734.549M2514.12 676.042H2580.59M2514.12 676.042V734.549M2580.59 676.042H2647.06M2580.59 676.042V734.549M2647.06 676.042H2713.53M2647.06 676.042V734.549M2713.53 676.042H2780M2713.53 676.042V734.549M2780 676.042V734.549M1716.47 734.549H1650M1716.47 734.549H1782.94M1716.47 734.549V793.056M1650 734.549V793.056M1782.94 734.549H1849.41M1782.94 734.549V793.056M1849.41 734.549H1915.88M1849.41 734.549V793.056M1915.88 734.549H1982.35M1915.88 734.549V793.056M1982.35 734.549H2048.82M1982.35 734.549V793.056M2048.82 734.549H2115.29M2048.82 734.549V793.056M2115.29 734.549H2181.76M2115.29 734.549V793.056M2181.76 734.549H2248.24M2181.76 734.549V793.056M2248.24 734.549H2314.71M2248.24 734.549V793.056M2314.71 734.549H2381.18M2314.71 734.549V793.056M2381.18 734.549H2447.65M2381.18 734.549V793.056M2447.65 734.549H2514.12M2447.65 734.549V793.056M2514.12 734.549H2580.59M2514.12 734.549V793.056M2580.59 734.549H2647.06M2580.59 734.549V793.056M2647.06 734.549H2713.53M2647.06 734.549V793.056M2713.53 734.549H2780M2713.53 734.549V793.056M2780 734.549V793.056M1716.47 793.056H1650M1716.47 793.056H1782.94M1716.47 793.056V851.563M1650 793.056V851.563M1782.94 793.056H1849.41M1782.94 793.056V851.563M1849.41 793.056H1915.88M1849.41 793.056V851.563M1915.88 793.056H1982.35M1915.88 793.056V851.563M1982.35 793.056H2048.82M1982.35 793.056V851.563M2048.82 793.056H2115.29M2048.82 793.056V851.563M2115.29 793.056H2181.76M2115.29 793.056V851.563M2181.76 793.056H2248.24M2181.76 793.056V851.563M2248.24 793.056H2314.71M2248.24 793.056V851.563M2314.71 793.056H2381.18M2314.71 793.056V851.563M2381.18 793.056H2447.65M2381.18 793.056V851.563M2447.65 793.056H2514.12M2447.65 793.056V851.563M2514.12 793.056H2580.59M2514.12 793.056V851.563M2580.59 793.056H2647.06M2580.59 793.056V851.563M2647.06 793.056H2713.53M2647.06 793.056V851.563M2713.53 793.056H2780M2713.53 793.056V851.563M2780 793.056V851.563M1716.47 851.563H1650M1716.47 851.563H1782.94M1716.47 851.563V910.07M1650 851.563V910.07M1782.94 851.563H1849.41M1782.94 851.563V910.07M1849.41 851.563H1915.88M1849.41 851.563V910.07M1915.88 851.563H1982.35M1915.88 851.563V910.07M1982.35 851.563H2048.82M1982.35 851.563V910.07M2048.82 851.563H2115.29M2048.82 851.563V910.07M2115.29 851.563H2181.76M2115.29 851.563V910.07M2181.76 851.563H2248.24M2181.76 851.563V910.07M2248.24 851.563H2314.71M2248.24 851.563V910.07M2314.71 851.563H2381.18M2314.71 851.563V910.07M2381.18 851.563H2447.65M2381.18 851.563V910.07M2447.65 851.563H2514.12M2447.65 851.563V910.07M2514.12 851.563H2580.59M2514.12 851.563V910.07M2580.59 851.563H2647.06M2580.59 851.563V910.07M2647.06 851.563H2713.53M2647.06 851.563V910.07M2713.53 851.563H2780M2713.53 851.563V910.07M2780 851.563V910.07M1716.47 910.07H1650M1716.47 910.07H1782.94M1716.47 910.07V968.576M1650 910.07V968.576M1782.94 910.07H1849.41M1782.94 910.07V968.576M1849.41 910.07H1915.88M1849.41 910.07V968.576M1915.88 910.07H1982.35M1915.88 910.07V968.576M1982.35 910.07H2048.82M1982.35 910.07V968.576M2048.82 910.07H2115.29M2048.82 910.07V968.576M2115.29 910.07H2181.76M2115.29 910.07V968.576M2181.76 910.07H2248.24M2181.76 910.07V968.576M2248.24 910.07H2314.71M2248.24 910.07V968.576M2314.71 910.07H2381.18M2314.71 910.07V968.576M2381.18 910.07H2447.65M2381.18 910.07V968.576M2447.65 910.07H2514.12M2447.65 910.07V968.576M2514.12 910.07H2580.59M2514.12 910.07V968.576M2580.59 910.07H2647.06M2580.59 910.07V968.576M2647.06 910.07H2713.53M2647.06 910.07V968.576M2713.53 910.07H2780M2713.53 910.07V968.576M2780 910.07V968.576M1716.47 968.576H1650M1716.47 968.576H1782.94M1716.47 968.576V1027.08M1650 968.576V1027.08H1716.47M1782.94 968.576H1849.41M1782.94 968.576V1027.08M1849.41 968.576H1915.88M1849.41 968.576V1027.08M1915.88 968.576H1982.35M1915.88 968.576V1027.08M1982.35 968.576H2048.82M1982.35 968.576V1027.08M2048.82 968.576H2115.29M2048.82 968.576V1027.08M2115.29 968.576H2181.76M2115.29 968.576V1027.08M2181.76 968.576H2248.24M2181.76 968.576V1027.08M2248.24 968.576H2314.71M2248.24 968.576V1027.08M2314.71 968.576H2381.18M2314.71 968.576V1027.08M2381.18 968.576H2447.65M2381.18 968.576V1027.08M2447.65 968.576H2514.12M2447.65 968.576V1027.08M2514.12 968.576H2580.59M2514.12 968.576V1027.08M2580.59 968.576H2647.06M2580.59 968.576V1027.08M2647.06 968.576H2713.53M2647.06 968.576V1027.08M2713.53 968.576H2780M2713.53 968.576V1027.08M2780 968.576V1027.08H2713.53M1716.47 1027.08H1782.94M1782.94 1027.08H1849.41M1849.41 1027.08H1915.88M1915.88 1027.08H1982.35M1982.35 1027.08H2048.82M2048.82 1027.08H2115.29M2115.29 1027.08H2181.76M2181.76 1027.08H2248.24M2248.24 1027.08H2314.71M2314.71 1027.08H2381.18M2381.18 1027.08H2447.65M2447.65 1027.08H2514.12M2514.12 1027.08H2580.59M2580.59 1027.08H2647.06M2647.06 1027.08H2713.53" stroke="url(#paint1_radial_23_3730)" stroke-opacity="0.7" stroke-width="1.49321"/>
<g filter="url(#filter8_f_23_3730)">
<circle cx="-583.5" cy="795.5" r="357.5" fill="#FFA2FC" fill-opacity="0.09"/>
</g>
<g filter="url(#filter9_f_23_3730)">
<circle cx="-492" cy="679" r="389" fill="#E6C8FF" fill-opacity="0.33"/>
</g>
<mask id="mask0_23_3730" style="mask-type:luminance" maskUnits="userSpaceOnUse" x="1736" y="1593" width="286" height="286">
<path d="M2019.7 1763.38L1921.63 1599.08C1918.49 1593.82 1911.68 1592.1 1906.42 1595.24L1742.14 1693.35C1736.88 1696.49 1735.16 1703.3 1738.3 1708.56L1836.38 1872.86C1839.51 1878.12 1846.32 1879.84 1851.58 1876.7L2015.86 1778.59C2021.12 1775.45 2022.84 1768.64 2019.7 1763.38Z" fill="white"/>
</mask>
<g mask="url(#mask0_23_3730)">
<path d="M2034.54 1766.29L1926.11 1584.63C1922.64 1578.82 1915.12 1576.92 1909.31 1580.39L1727.67 1688.86C1721.86 1692.33 1719.96 1699.85 1723.43 1705.66L1831.87 1887.33C1835.33 1893.14 1842.86 1895.03 1848.66 1891.56L2030.31 1783.09C2036.11 1779.62 2038.01 1772.1 2034.54 1766.29Z" fill="url(#paint2_radial_23_3730)" fill-opacity="0.2"/>
<path opacity="0.19" d="M2019.7 1763.38L1921.63 1599.08C1918.49 1593.82 1911.68 1592.1 1906.42 1595.24L1742.14 1693.35C1736.88 1696.49 1735.16 1703.3 1738.3 1708.56L1836.38 1872.86C1839.51 1878.12 1846.32 1879.84 1851.58 1876.7L2015.86 1778.59C2021.12 1775.45 2022.84 1768.64 2019.7 1763.38Z" fill="#F7F5FE"/>
<path opacity="0.8" d="M1917.23 1597.97L2015.31 1762.28C2016.06 1763.53 2016.55 1764.92 2016.76 1766.36C2016.97 1767.8 2016.9 1769.27 2016.54 1770.68C2016.19 1772.09 2015.56 1773.42 2014.69 1774.59C2013.82 1775.76 2012.73 1776.75 2011.48 1777.49L1847.18 1875.6C1845.34 1876.73 1843.2 1877.29 1841.03 1877.21C1842.69 1878.01 1844.52 1878.39 1846.36 1878.3C1848.2 1878.21 1849.99 1877.66 1851.56 1876.71L2015.86 1778.6C2017.11 1777.85 2018.2 1776.86 2019.07 1775.7C2019.94 1774.53 2020.57 1773.2 2020.92 1771.79C2021.28 1770.38 2021.35 1768.91 2021.14 1767.47C2020.93 1766.02 2020.44 1764.64 2019.69 1763.39L1921.61 1599.08C1920.68 1597.49 1919.37 1596.16 1917.79 1595.21C1916.21 1594.26 1914.42 1593.72 1912.58 1593.64C1914.52 1594.6 1916.14 1596.11 1917.23 1597.97Z" fill="#FFFEFB"/>
</g>
<path opacity="0.04" d="M-4.84372 1565.93C-4.98607 1550.61 47.9936 1332.81 179.233 1164.11C296.995 1012.91 515.31 946.853 726.986 1094.96C953.781 1253.68 1167.98 1295.11 1349.77 1281.81C1529.22 1268.51 1665.11 1174.57 1730.14 1111.8C1871.15 976.206 2018.13 1091.24 1921.64 1281.49C1876.38 1369.94 1799.24 1386.09 1672.4 1379.01C1539.81 1371.62 1350.92 1324.73 1074.8 1332.31C808.473 1339.79 498.387 1401.59 310.138 1507.73C109.773 1620.8 -4.67597 1699.54 -4.84372 1565.93Z" fill="url(#paint3_linear_23_3730)"/>
<g filter="url(#filter10_f_23_3730)">
<circle cx="226.5" cy="1456.5" r="140.5" fill="#D9AFFA" fill-opacity="0.15"/>
</g>
<g filter="url(#filter11_f_23_3730)">
<circle cx="294.5" cy="1340.5" r="140.5" fill="#E9E7C6" fill-opacity="0.06"/>
</g>
<g filter="url(#filter12_f_23_3730)">
<circle cx="168" cy="168" r="168" transform="matrix(-1 0 0 1 2145 1246)" fill="#C2BDFF" fill-opacity="0.31"/>
</g>
<g filter="url(#filter13_f_23_3730)">
<circle cx="168" cy="168" r="168" transform="matrix(-1 0 0 1 1858 1325)" fill="#E9E7C6" fill-opacity="0.13"/>
</g>
<g filter="url(#filter14_f_23_3730)">
<ellipse cx="168.5" cy="168" rx="168.5" ry="168" transform="matrix(-1 0 0 1 1947 1441)" fill="#E3BFFF" fill-opacity="0.13"/>
</g>
</g>
<defs>
<filter id="filter0_f_23_3730" x="-1359.6" y="-795.6" width="1552.2" height="1552.2" filterUnits="userSpaceOnUse" color-interpolation-filters="sRGB">
<feFlood flood-opacity="0" result="BackgroundImageFix"/>
<feBlend mode="normal" in="SourceGraphic" in2="BackgroundImageFix" result="shape"/>
<feGaussianBlur stdDeviation="209.3" result="effect1_foregroundBlur_23_3730"/>
</filter>
<filter id="filter1_f_23_3730" x="-1299.6" y="-943.6" width="1615.2" height="1615.2" filterUnits="userSpaceOnUse" color-interpolation-filters="sRGB">
<feFlood flood-opacity="0" result="BackgroundImageFix"/>
<feBlend mode="normal" in="SourceGraphic" in2="BackgroundImageFix" result="shape"/>
<feGaussianBlur stdDeviation="209.3" result="effect1_foregroundBlur_23_3730"/>
</filter>
<filter id="filter2_f_23_3730" x="-183.1" y="354.9" width="487.2" height="487.2" filterUnits="userSpaceOnUse" color-interpolation-filters="sRGB">
<feFlood flood-opacity="0" result="BackgroundImageFix"/>
<feBlend mode="normal" in="SourceGraphic" in2="BackgroundImageFix" result="shape"/>
<feGaussianBlur stdDeviation="51.55" result="effect1_foregroundBlur_23_3730"/>
</filter>
<filter id="filter3_f_23_3730" x="81.6" y="454.6" width="349.8" height="349.8" filterUnits="userSpaceOnUse" color-interpolation-filters="sRGB">
<feFlood flood-opacity="0" result="BackgroundImageFix"/>
<feBlend mode="normal" in="SourceGraphic" in2="BackgroundImageFix" result="shape"/>
<feGaussianBlur stdDeviation="17.2" result="effect1_foregroundBlur_23_3730"/>
</filter>
<filter id="filter4_f_23_3730" x="132.6" y="388.6" width="349.8" height="349.8" filterUnits="userSpaceOnUse" color-interpolation-filters="sRGB">
<feFlood flood-opacity="0" result="BackgroundImageFix"/>
<feBlend mode="normal" in="SourceGraphic" in2="BackgroundImageFix" result="shape"/>
<feGaussianBlur stdDeviation="17.2" result="effect1_foregroundBlur_23_3730"/>
</filter>
<filter id="filter5_f_23_3730" x="1705.9" y="137.9" width="542.2" height="542.2" filterUnits="userSpaceOnUse" color-interpolation-filters="sRGB">
<feFlood flood-opacity="0" result="BackgroundImageFix"/>
<feBlend mode="normal" in="SourceGraphic" in2="BackgroundImageFix" result="shape"/>
<feGaussianBlur stdDeviation="51.55" result="effect1_foregroundBlur_23_3730"/>
</filter>
<filter id="filter6_f_23_3730" x="1487.6" y="285.6" width="404.8" height="404.8" filterUnits="userSpaceOnUse" color-interpolation-filters="sRGB">
<feFlood flood-opacity="0" result="BackgroundImageFix"/>
<feBlend mode="normal" in="SourceGraphic" in2="BackgroundImageFix" result="shape"/>
<feGaussianBlur stdDeviation="17.2" result="effect1_foregroundBlur_23_3730"/>
</filter>
<filter id="filter7_f_23_3730" x="1575.6" y="401.6" width="405.8" height="404.8" filterUnits="userSpaceOnUse" color-interpolation-filters="sRGB">
<feFlood flood-opacity="0" result="BackgroundImageFix"/>
<feBlend mode="normal" in="SourceGraphic" in2="BackgroundImageFix" result="shape"/>
<feGaussianBlur stdDeviation="17.2" result="effect1_foregroundBlur_23_3730"/>
</filter>
<filter id="filter8_f_23_3730" x="-1359.6" y="19.4" width="1552.2" height="1552.2" filterUnits="userSpaceOnUse" color-interpolation-filters="sRGB">
<feFlood flood-opacity="0" result="BackgroundImageFix"/>
<feBlend mode="normal" in="SourceGraphic" in2="BackgroundImageFix" result="shape"/>
<feGaussianBlur stdDeviation="209.3" result="effect1_foregroundBlur_23_3730"/>
</filter>
<filter id="filter9_f_23_3730" x="-1299.6" y="-128.6" width="1615.2" height="1615.2" filterUnits="userSpaceOnUse" color-interpolation-filters="sRGB">
<feFlood flood-opacity="0" result="BackgroundImageFix"/>
<feBlend mode="normal" in="SourceGraphic" in2="BackgroundImageFix" result="shape"/>
<feGaussianBlur stdDeviation="209.3" result="effect1_foregroundBlur_23_3730"/>
</filter>
<filter id="filter10_f_23_3730" x="51.6" y="1281.6" width="349.8" height="349.8" filterUnits="userSpaceOnUse" color-interpolation-filters="sRGB">
<feFlood flood-opacity="0" result="BackgroundImageFix"/>
<feBlend mode="normal" in="SourceGraphic" in2="BackgroundImageFix" result="shape"/>
<feGaussianBlur stdDeviation="17.2" result="effect1_foregroundBlur_23_3730"/>
</filter>
<filter id="filter11_f_23_3730" x="119.6" y="1165.6" width="349.8" height="349.8" filterUnits="userSpaceOnUse" color-interpolation-filters="sRGB">
<feFlood flood-opacity="0" result="BackgroundImageFix"/>
<feBlend mode="normal" in="SourceGraphic" in2="BackgroundImageFix" result="shape"/>
<feGaussianBlur stdDeviation="17.2" result="effect1_foregroundBlur_23_3730"/>
</filter>
<filter id="filter12_f_23_3730" x="1705.9" y="1142.9" width="542.2" height="542.2" filterUnits="userSpaceOnUse" color-interpolation-filters="sRGB">
<feFlood flood-opacity="0" result="BackgroundImageFix"/>
<feBlend mode="normal" in="SourceGraphic" in2="BackgroundImageFix" result="shape"/>
<feGaussianBlur stdDeviation="51.55" result="effect1_foregroundBlur_23_3730"/>
</filter>
<filter id="filter13_f_23_3730" x="1487.6" y="1290.6" width="404.8" height="404.8" filterUnits="userSpaceOnUse" color-interpolation-filters="sRGB">
<feFlood flood-opacity="0" result="BackgroundImageFix"/>
<feBlend mode="normal" in="SourceGraphic" in2="BackgroundImageFix" result="shape"/>
<feGaussianBlur stdDeviation="17.2" result="effect1_foregroundBlur_23_3730"/>
</filter>
<filter id="filter14_f_23_3730" x="1575.6" y="1406.6" width="405.8" height="404.8" filterUnits="userSpaceOnUse" color-interpolation-filters="sRGB">
<feFlood flood-opacity="0" result="BackgroundImageFix"/>
<feBlend mode="normal" in="SourceGraphic" in2="BackgroundImageFix" result="shape"/>
<feGaussianBlur stdDeviation="17.2" result="effect1_foregroundBlur_23_3730"/>
</filter>
<radialGradient id="paint0_radial_23_3730" cx="0" cy="0" r="1" gradientUnits="userSpaceOnUse" gradientTransform="translate(1518.56 -413.342) rotate(48.6119) scale(1012.53 1652.64)">
<stop offset="0.123834" stop-color="white" stop-opacity="0"/>
<stop offset="0.515437" stop-color="#5A469C" stop-opacity="0.19"/>
<stop offset="1" stop-color="white" stop-opacity="0"/>
</radialGradient>
<radialGradient id="paint1_radial_23_3730" cx="0" cy="0" r="1" gradientUnits="userSpaceOnUse" gradientTransform="translate(1775.56 293.658) rotate(48.6119) scale(1012.53 1652.64)">
<stop offset="0.123834" stop-color="white" stop-opacity="0"/>
<stop offset="0.515437" stop-color="#5A469C" stop-opacity="0.19"/>
<stop offset="1" stop-color="white" stop-opacity="0"/>
</radialGradient>
<radialGradient id="paint2_radial_23_3730" cx="0" cy="0" r="1" gradientUnits="userSpaceOnUse" gradientTransform="translate(2761.7 1547.23) rotate(104.161) scale(1136.56 1136.33)">
<stop stop-color="#EBF9FB"/>
<stop offset="1" stop-color="#D5A4F3"/>
</radialGradient>
<linearGradient id="paint3_linear_23_3730" x1="1758.73" y1="1679.15" x2="275.125" y2="793.28" gradientUnits="userSpaceOnUse">
<stop stop-color="#5D50C6"/>
<stop offset="1" stop-color="#F85E9F"/>
</linearGradient>
<clipPath id="clip0_23_3730">
<rect width="1920" height="815" fill="white"/>
</clipPath>
<clipPath id="clip1_23_3730">
<rect width="1920" height="815" fill="white" transform="translate(0 815)"/>
</clipPath>
</defs>
</svg>
