<svg width="51" height="56" viewBox="0 0 51 56" fill="none" xmlns="http://www.w3.org/2000/svg">
<path d="M5.62239 27.6729V38.3395C5.62239 40.5529 7.40906 42.3395 9.62239 42.3395C11.8357 42.3395 13.6224 40.5529 13.6224 38.3395V27.6729C13.6224 25.4596 11.8357 23.6729 9.62239 23.6729C7.40906 23.6729 5.62239 25.4596 5.62239 27.6729ZM21.6224 27.6729V38.3395C21.6224 40.5529 23.409 42.3395 25.6224 42.3395C27.8357 42.3395 29.6224 40.5529 29.6224 38.3395V27.6729C29.6224 25.4596 27.8357 23.6729 25.6224 23.6729C23.409 23.6729 21.6224 25.4596 21.6224 27.6729ZM4.28906 55.6728H46.9557C49.169 55.6728 50.9557 53.8862 50.9557 51.6729C50.9557 49.4595 49.169 47.6729 46.9557 47.6729H4.28906C2.07573 47.6729 0.289062 49.4595 0.289062 51.6729C0.289062 53.8862 2.07573 55.6728 4.28906 55.6728ZM37.6224 27.6729V38.3395C37.6224 40.5529 39.409 42.3395 41.6224 42.3395C43.8357 42.3395 45.6224 40.5529 45.6224 38.3395V27.6729C45.6224 25.4596 43.8357 23.6729 41.6224 23.6729C39.409 23.6729 37.6224 25.4596 37.6224 27.6729ZM23.1424 0.979618L2.07573 12.0729C0.982396 12.6329 0.289062 13.7796 0.289062 15.0063C0.289062 16.8463 1.7824 18.3396 3.62239 18.3396H47.649C49.4624 18.3396 50.9557 16.8463 50.9557 15.0063C50.9557 13.7796 50.2624 12.6329 49.169 12.0729L28.1024 0.979618C26.5557 0.152953 24.689 0.152953 23.1424 0.979618Z" fill="url(#paint0_linear_2211_4934)"/>
<defs>
<linearGradient id="paint0_linear_2211_4934" x1="5.03209" y1="31.6669" x2="28.6351" y2="32.9429" gradientUnits="userSpaceOnUse">
<stop stop-color="#5A469C"/>
<stop offset="1" stop-color="#2F2164"/>
</linearGradient>
</defs>
</svg>
