<svg width="46" height="49" viewBox="0 0 46 49" fill="none" xmlns="http://www.w3.org/2000/svg">
<path d="M18.6486 26.7782C18.6486 24.5891 19.8173 22.6291 21.707 21.6618L26.68 19.0655C27.4757 18.6582 28.3459 18.4545 29.2162 18.4545H36.0541V7C36.0541 3.13091 32.9957 0 29.2162 0H6.83784C3.05838 0 0 3.13091 0 7V40.0909C0 43.96 3.05838 47.0909 6.83784 47.0909H23.8951C20.5881 43.4509 18.6486 38.5891 18.6486 33.4218V26.7782ZM6.83784 7.63636H24.2432C25.2726 7.63636 26.1081 8.49164 26.1081 9.54545C26.1081 10.5993 25.2726 11.4545 24.2432 11.4545H6.83784C5.80843 11.4545 4.97297 10.5993 4.97297 9.54545C4.97297 8.49164 5.80843 7.63636 6.83784 7.63636ZM14.2973 26.7273H6.83784C5.80843 26.7273 4.97297 25.872 4.97297 24.8182C4.97297 23.7644 5.80843 22.9091 6.83784 22.9091H14.2973C15.3267 22.9091 16.1622 23.7644 16.1622 24.8182C16.1622 25.872 15.3267 26.7273 14.2973 26.7273ZM16.7838 19.0909H6.83784C5.80843 19.0909 4.97297 18.2356 4.97297 17.1818C4.97297 16.128 5.80843 15.2727 6.83784 15.2727H16.7838C17.8132 15.2727 18.6486 16.128 18.6486 17.1818C18.6486 18.2356 17.8132 19.0909 16.7838 19.0909ZM44.9805 25.0625L40.0076 22.4789C39.7465 22.344 39.4556 22.2727 39.1622 22.2727H29.2162C28.9228 22.2727 28.6344 22.344 28.3708 22.4789L23.3978 25.0625C22.7712 25.3884 22.3784 26.0476 22.3784 26.7655V33.4295C22.3784 40.1927 26.5059 46.3349 32.6575 48.7149C33.1498 48.9058 33.667 49 34.1867 49C34.7064 49 35.2285 48.9033 35.7283 48.7124C41.8724 46.3349 46 40.1927 46 33.4295V26.7655C46 26.0476 45.6071 25.3884 44.9805 25.0625ZM39.3113 33.0604L34.8357 38.1895C34.4801 38.5942 33.9754 38.8258 33.4432 38.8258C32.9111 38.8258 32.4064 38.5942 32.0508 38.1895L29.067 34.7684C28.3832 33.9818 28.4479 32.7753 29.2162 32.0727C29.987 31.3727 31.1606 31.4364 31.8519 32.2255L33.4457 34.0505L36.529 30.5149C37.2128 29.7284 38.3913 29.6622 39.1646 30.3622C39.933 31.0647 39.9976 32.2713 39.3138 33.0578L39.3113 33.0604Z" fill="white"/>
</svg>
