<svg width="44" height="46" viewBox="0 0 44 46" fill="none" xmlns="http://www.w3.org/2000/svg">
<path d="M18.1094 24.7918C18.1094 22.7851 19.206 20.9885 20.9794 20.1018L25.646 17.7218C26.3927 17.3485 27.2094 17.1618 28.026 17.1618H34.4427V6.66178C34.4427 3.11512 31.5727 0.245117 28.026 0.245117H7.02604C3.47938 0.245117 0.609375 3.11512 0.609375 6.66178V36.9951C0.609375 40.5418 3.47938 43.4118 7.02604 43.4118H23.0327C19.9294 40.0751 18.1094 35.6185 18.1094 30.8818V24.7918ZM7.02604 7.24512H23.3594C24.3254 7.24512 25.1094 8.02912 25.1094 8.99512C25.1094 9.96112 24.3254 10.7451 23.3594 10.7451H7.02604C6.06004 10.7451 5.27604 9.96112 5.27604 8.99512C5.27604 8.02912 6.06004 7.24512 7.02604 7.24512ZM14.026 24.7451H7.02604C6.06004 24.7451 5.27604 23.9611 5.27604 22.9951C5.27604 22.0291 6.06004 21.2451 7.02604 21.2451H14.026C14.992 21.2451 15.776 22.0291 15.776 22.9951C15.776 23.9611 14.992 24.7451 14.026 24.7451ZM16.3594 17.7451H7.02604C6.06004 17.7451 5.27604 16.9611 5.27604 15.9951C5.27604 15.0291 6.06004 14.2451 7.02604 14.2451H16.3594C17.3254 14.2451 18.1094 15.0291 18.1094 15.9951C18.1094 16.9611 17.3254 17.7451 16.3594 17.7451ZM42.8194 23.2191L38.1527 20.8508C37.9077 20.7271 37.6347 20.6618 37.3594 20.6618H28.026C27.7507 20.6618 27.48 20.7271 27.2327 20.8508L22.566 23.2191C21.978 23.5178 21.6094 24.1221 21.6094 24.7801V30.8888C21.6094 37.0885 25.4827 42.7188 31.2554 44.9005C31.7174 45.0755 32.2027 45.1618 32.6904 45.1618C33.178 45.1618 33.668 45.0731 34.137 44.8981C39.9027 42.7188 43.776 37.0885 43.776 30.8888V24.7801C43.776 24.1221 43.4074 23.5178 42.8194 23.2191ZM37.4994 30.5505L33.2994 35.2521C32.9657 35.6231 32.492 35.8355 31.9927 35.8355C31.4934 35.8355 31.0197 35.6231 30.686 35.2521L27.886 32.1161C27.2444 31.3951 27.305 30.2891 28.026 29.6451C28.7494 29.0035 29.8507 29.0618 30.4994 29.7851L31.995 31.4581L34.8884 28.2171C35.53 27.4961 36.636 27.4355 37.3617 28.0771C38.0827 28.7211 38.1434 29.8271 37.5017 30.5481L37.4994 30.5505Z" fill="url(#paint0_linear_2286_19262)"/>
<defs>
<linearGradient id="paint0_linear_2286_19262" x1="4.65031" y1="25.668" x2="24.7536" y2="26.8082" gradientUnits="userSpaceOnUse">
<stop stop-color="#5A469C"/>
<stop offset="1" stop-color="#2F2164"/>
</linearGradient>
</defs>
</svg>
