<svg width="442" height="545" viewBox="0 0 442 545" fill="none" xmlns="http://www.w3.org/2000/svg">
<g opacity="0.3" clip-path="url(#clip0_2019_8511)">
<g style="mix-blend-mode:overlay" opacity="0.42">
<path d="M300.896 125.736C315 125.748 328.784 129.941 340.501 137.784C352.218 145.628 361.343 156.77 366.719 169.798C372.094 182.826 373.48 197.155 370.699 210.97C367.919 224.785 361.098 237.466 351.1 247.405C341.102 257.345 328.376 264.097 314.535 266.806C300.694 269.515 286.359 268.059 273.347 262.623C260.334 257.187 249.229 248.015 241.437 236.269C233.644 224.523 229.516 210.731 229.575 196.639C229.575 187.298 231.422 178.049 235.011 169.424C238.599 160.798 243.858 152.966 250.486 146.377C257.113 139.789 264.978 134.573 273.629 131.031C282.28 127.489 291.547 125.689 300.896 125.736Z" fill="white"/>
</g>
<g style="mix-blend-mode:overlay" opacity="0.42">
<path d="M347.378 538.631C351.311 538.631 355.155 539.797 358.424 541.981C361.693 544.165 364.24 547.269 365.742 550.9C367.244 554.531 367.634 558.526 366.863 562.379C366.091 566.231 364.193 569.769 361.408 572.543C358.623 575.317 355.077 577.203 351.219 577.963C347.36 578.722 343.363 578.32 339.733 576.809C336.103 575.297 333.004 572.743 330.828 569.47C328.652 566.198 327.496 562.354 327.508 558.425C327.524 553.17 329.624 548.135 333.349 544.425C337.073 540.714 342.119 538.631 347.378 538.631Z" fill="white"/>
</g>
<g style="mix-blend-mode:overlay" opacity="0.42">
<path d="M287.648 253.185C290.242 253.185 292.778 253.953 294.936 255.391C297.094 256.83 298.776 258.875 299.772 261.269C300.767 263.662 301.031 266.297 300.529 268.839C300.027 271.382 298.782 273.72 296.952 275.556C295.122 277.393 292.788 278.647 290.246 279.16C287.703 279.673 285.065 279.421 282.665 278.438C280.265 277.454 278.21 275.782 276.761 273.632C275.311 271.483 274.531 268.953 274.52 266.361C274.519 262.877 275.901 259.534 278.361 257.065C280.822 254.596 284.161 253.2 287.648 253.185Z" fill="white"/>
</g>
<g style="mix-blend-mode:overlay" opacity="0.42">
<path d="M117.5 427C128.279 427 138.816 430.226 147.779 436.269C156.741 442.313 163.726 450.902 167.851 460.952C171.976 471.002 173.056 482.061 170.953 492.73C168.85 503.399 163.659 513.199 156.037 520.891C148.415 528.583 138.704 533.821 128.132 535.943C117.56 538.065 106.602 536.976 96.6437 532.813C86.6852 528.651 78.1734 521.601 72.1849 512.556C66.1964 503.512 63 492.878 63 482C63 467.413 68.742 453.424 78.9627 443.109C89.1834 432.795 103.046 427 117.5 427Z" fill="white"/>
</g>
<g style="mix-blend-mode:overlay" opacity="0.42">
<path d="M159.969 0C167.768 8.75742e-06 175.392 2.30991 181.877 6.63779C188.363 10.9657 193.418 17.1173 196.406 24.3152C199.393 31.5131 200.178 39.4342 198.66 47.0775C197.143 54.7208 193.392 61.7431 187.882 67.2571C182.371 72.7712 175.348 76.5293 167.7 78.0566C160.053 79.584 152.123 78.8119 144.915 75.8381C137.706 72.8643 131.541 67.8221 127.2 61.3489C122.858 54.8756 120.535 47.2618 120.523 39.4697C120.539 29.0167 124.698 18.9954 132.09 11.5985C139.483 4.20154 149.507 0.031238 159.969 0Z" fill="white"/>
</g>
<g style="mix-blend-mode:overlay" opacity="0.42">
<path d="M372.865 138.439C386.571 138.451 399.966 142.522 411.356 150.139C422.746 157.755 431.621 168.574 436.857 181.229C442.094 193.884 443.458 207.805 440.777 221.234C438.096 234.664 431.491 246.997 421.795 256.676C412.1 266.355 399.75 272.944 386.306 275.611C372.863 278.278 358.93 276.904 346.269 271.661C333.607 266.418 322.786 257.542 315.173 246.155C307.56 234.768 303.496 221.382 303.496 207.688C303.488 198.587 305.278 189.574 308.762 181.165C312.246 172.756 317.356 165.116 323.8 158.684C330.244 152.251 337.895 147.152 346.314 143.678C354.734 140.204 363.756 138.424 372.865 138.439Z" fill="white"/>
</g>
<g style="mix-blend-mode:overlay" opacity="0.42">
<path d="M287.64 324C303.159 324.028 318.323 328.655 331.214 337.297C344.105 345.94 354.144 358.21 360.064 372.556C365.985 386.902 367.519 402.682 364.475 417.9C361.43 433.118 353.942 447.093 342.959 458.057C331.975 469.022 317.987 476.484 302.763 479.502C287.54 482.519 271.763 480.957 257.427 475.011C243.091 469.066 230.84 459.004 222.22 446.098C213.6 433.192 209 418.02 209 402.5C209.006 392.181 211.045 381.965 215.001 372.434C218.957 362.904 224.752 354.246 232.055 346.956C239.358 339.666 248.026 333.887 257.563 329.948C267.101 326.009 277.321 323.988 287.64 324Z" fill="white"/>
</g>
<g style="mix-blend-mode:overlay" opacity="0.42">
<path d="M103.101 151C114.37 151.02 125.381 154.38 134.741 160.655C144.101 166.931 151.391 175.84 155.69 186.257C159.989 196.674 161.103 208.132 158.892 219.182C156.682 230.232 151.245 240.379 143.269 248.341C135.294 256.302 125.137 261.721 114.083 263.912C103.029 266.103 91.5732 264.969 81.1637 260.651C70.7542 256.334 61.858 249.028 55.5992 239.657C49.3405 230.286 46 219.269 46 208C46.0044 200.507 47.4852 193.089 50.3576 186.169C53.23 179.249 57.4378 172.962 62.7406 167.669C68.0434 162.376 74.3372 158.179 81.2625 155.319C88.1877 152.459 95.6087 150.991 103.101 151Z" fill="white"/>
</g>
</g>
<defs>
<clipPath id="clip0_2019_8511">
<rect width="442" height="545" fill="white"/>
</clipPath>
</defs>
</svg>
