<svg width="100" height="100" viewBox="0 0 100 100" fill="none" xmlns="http://www.w3.org/2000/svg">
<g style="mix-blend-mode:overlay" opacity="0.42">
<path d="M50.0889 3.5089e-05C59.9741 0.0176037 69.6323 2.96496 77.8431 8.46971C86.0539 13.9744 92.4486 21.7895 96.2194 30.9274C99.9902 40.0652 100.968 50.1157 99.0284 59.8089C97.0891 69.5021 92.3201 78.4029 85.3239 85.3867C78.3278 92.3704 69.4185 97.1237 59.7219 99.0457C50.0253 100.968 39.9765 99.9725 30.8453 96.1855C21.7142 92.3985 13.9105 85.9898 8.42038 77.7693C2.93023 69.5488 1.56119e-05 59.8853 0 50C0.00388673 43.4276 1.30278 36.9203 3.82245 30.8499C6.34212 24.7796 10.0332 19.2653 14.6848 14.6219C19.3363 9.97863 24.8572 6.29734 30.932 3.78845C37.0068 1.27956 43.5164 -0.00774875 50.0889 3.5089e-05Z" fill="white" fill-opacity="0.4"/>
</g>
</svg>
