<svg width="302" height="302" viewBox="0 0 302 302" fill="none" xmlns="http://www.w3.org/2000/svg">
<mask id="mask0_12_2064" style="mask-type:luminance" maskUnits="userSpaceOnUse" x="4" y="4" width="294" height="294">
<path d="M143.159 7.83929L7.84146 143.129C3.51081 147.459 3.51068 154.479 7.84133 158.808L143.159 294.098C147.489 298.428 154.511 298.428 158.841 294.098L294.159 158.808C298.489 154.479 298.489 147.459 294.159 143.129L158.841 7.83929C154.511 3.50952 147.489 3.50952 143.159 7.83929Z" fill="white"/>
</mask>
<g mask="url(#mask0_12_2064)">
<path d="M142.346 -7.26632L-7.26718 142.317C-12.0524 147.101 -12.0524 154.858 -7.26717 159.642L142.346 309.225C147.132 314.01 154.89 314.01 159.675 309.225L309.289 159.642C314.074 154.858 314.074 147.101 309.289 142.317L159.675 -7.26631C154.89 -12.0506 147.132 -12.0506 142.346 -7.26632Z" fill="url(#paint0_radial_12_2064)" fill-opacity="0.2"/>
<path opacity="0.19" d="M143.159 7.83929L7.84146 143.129C3.51081 147.459 3.51068 154.479 7.84133 158.808L143.159 294.098C147.489 298.428 154.511 298.428 158.841 294.098L294.159 158.808C298.489 154.479 298.489 147.459 294.159 143.129L158.841 7.83929C154.511 3.50952 147.489 3.50952 143.159 7.83929Z" fill="#F7F5FE"/>
<path opacity="0.8" d="M7.84346 147.657L143.167 12.3614C144.197 11.3316 145.419 10.5147 146.765 9.95739C148.11 9.40006 149.553 9.1132 151.009 9.1132C152.466 9.1132 153.908 9.40006 155.253 9.95739C156.599 10.5147 157.822 11.3316 158.851 12.3614L294.175 147.657C295.724 149.172 296.789 151.112 297.238 153.231C297.61 151.427 297.525 149.559 296.989 147.796C296.454 146.034 295.487 144.433 294.175 143.14L158.851 7.84387C157.822 6.81409 156.599 5.99718 155.253 5.43985C153.908 4.88252 152.466 4.5957 151.009 4.5957C149.553 4.5957 148.11 4.88252 146.765 5.43985C145.419 5.99718 144.197 6.81409 143.167 7.84387L7.84346 143.14C6.5314 144.433 5.56364 146.034 5.02859 147.796C4.49355 149.559 4.40821 151.427 4.78011 153.231C5.23567 151.114 6.30049 149.177 7.84346 147.657Z" fill="#FFFEFB"/>
</g>
<defs>
<radialGradient id="paint0_radial_12_2064" cx="0" cy="0" r="1" gradientUnits="userSpaceOnUse" gradientTransform="translate(-247.957 -658.727) scale(1136.56 1136.33)">
<stop stop-color="#EBF9FB"/>
<stop offset="1" stop-color="#D5A4F3"/>
</radialGradient>
</defs>
</svg>
