<svg width="349" height="167" viewBox="0 0 349 167" fill="none" xmlns="http://www.w3.org/2000/svg">
<path d="M0.540749 158.145C0.643928 154.244 0.747076 150.344 0.850256 146.443C2.12558 142.989 0.757455 139.304 1.77711 135.829C1.8947 132.28 2.01218 128.731 2.12977 125.182C3.48249 121.378 1.79444 117.309 3.14905 113.505C6.56573 113.415 6.50815 116.726 7.9428 118.524C9.41728 120.373 10.6209 122.459 11.7923 124.526C16.5438 132.908 16.5226 132.92 23.5361 128.756C25.2409 131.574 21.7991 133.323 22.0832 135.811C23.8726 137.265 26.1641 135.798 28.0259 136.832C29.9408 136.95 31.8557 137.068 33.7706 137.186C35.8903 138.22 38.2832 137.19 40.4242 138.066C42.2564 138.294 44.0885 138.522 47.9016 138.997C31.6918 148.531 16.8165 157.28 1.94122 166.028C-1.40832 163.912 0.607512 160.844 0.540749 158.145Z" fill="#8E7ADC" fill-opacity="0.49"/>
<path d="M244.266 18.8207C248.666 17.0705 250.874 18.8867 252.701 21.5986C253.741 23.1436 253.974 24.9219 252.287 25.9249C249.503 27.5799 246.407 28.8864 243.098 28.4835C241.518 28.2912 241.535 26.4476 242.777 25.912C244.599 25.1268 246.27 23.7729 249.274 24.2892C247.357 22.1956 246.078 20.7989 244.266 18.8207Z" fill="#8E7ADC" fill-opacity="0.49"/>
<path d="M258.551 25.4308C259.98 27.0669 261.402 28.7101 262.843 30.3364C263.614 31.2066 263.682 32.2338 263.245 33.1821C262.897 33.9393 261.822 34.6168 261.259 33.9981C259.007 31.5229 253.774 30.6607 256.328 25.4221C257.072 24.8318 257.812 24.8326 258.551 25.4308Z" fill="#8E7ADC" fill-opacity="0.49"/>
<path d="M206.847 53.4516C208.004 52.8496 207.662 54.4868 207.558 55.1791C207.112 58.1322 205.871 60.8354 203.37 62.4908C202.173 63.2832 200.729 61.66 201.126 60.7102C202.228 58.0708 202.758 54.8191 206.847 53.4516Z" fill="#8E7ADC" fill-opacity="0.49"/>
<path d="M206.264 114.824C205.06 114.489 204.584 114.496 204.327 114.263C201.964 112.123 199.606 109.92 199.853 106.365C199.879 105.994 201.587 105.251 201.817 105.458C204.459 107.831 206.506 110.564 206.264 114.824Z" fill="#8E7ADC" fill-opacity="0.49"/>
<path d="M284.651 85.5003C284.097 89.5919 284.98 92.4066 283.483 95.0335C283.066 95.7652 283.627 97.4001 282.017 96.9039C281.186 96.6475 279.93 95.5577 279.996 94.9693C280.346 91.8015 279.965 88.1633 284.651 85.5003Z" fill="#8E7ADC" fill-opacity="0.49"/>
<path d="M279.247 100.093C281.418 99.7524 282.496 100.268 282.161 101.458C281.343 104.368 281.05 107.702 278.017 109.397C276.919 110.012 276.053 109.156 276.036 107.947C275.99 104.55 278.15 102.253 279.247 100.093Z" fill="#8E7ADC" fill-opacity="0.49"/>
<path d="M316.968 32.8525C314.799 31.0386 310.729 32.1094 309.624 28.7629C309.039 26.9918 311.692 26.2881 312.575 26.7866C314.91 28.1044 318.772 27.5198 319.226 31.4012C319.392 32.8256 318.15 32.823 316.968 32.8525Z" fill="#8E7ADC" fill-opacity="0.49"/>
<path d="M210.795 2.0528C213.815 2.02739 216.722 1.87832 217.505 4.40545C218.024 6.07832 215.657 7.14691 214.059 6.3871C211.745 5.28665 207.723 6.7137 207.208 3.5159C206.773 0.816544 209.93 2.44807 210.795 2.0528Z" fill="#8E7ADC" fill-opacity="0.49"/>
<path d="M64.3494 69.4998C65.855 66.8717 67.3364 64.191 70.1321 62.7844C71.1138 62.2905 72.2028 62.9877 72.133 64.2824C71.9441 67.7928 69.3563 69.4831 66.6627 70.928C65.426 71.5914 65.0341 70.1572 64.3494 69.4998Z" fill="#8E7ADC" fill-opacity="0.49"/>
<path d="M257.901 127.507C259.754 124.989 262.46 123.601 265.199 122.43C266.272 121.972 267.209 123.277 266.76 124.313C265.459 127.314 263.119 129.207 259.764 129.438C258.725 129.51 258.107 128.637 257.901 127.507Z" fill="#8E7ADC" fill-opacity="0.49"/>
<path d="M127.303 17.6789C128.818 14.5543 132.186 14.4189 134.812 13.1459C135.722 12.7043 137.118 13.4345 136.767 14.6583C135.842 17.8925 132.838 18.3795 130.106 19.079C128.823 19.4072 127.662 19.2994 127.303 17.6789Z" fill="#8E7ADC" fill-opacity="0.49"/>
<path d="M172.808 1.55197C174.752 1.07173 177.217 1.39948 176.57 3.09966C175.582 5.69242 172.202 5.09875 169.755 5.51147C168.465 5.72883 166.033 6.19694 166.213 4.54114C166.679 0.244018 170.811 2.76432 172.808 1.55197Z" fill="#8E7ADC" fill-opacity="0.49"/>
<path d="M200.152 99.1605C200.301 100.606 200.329 102.723 198.453 102.134C195.505 101.207 196.156 97.8457 195.473 95.4855C195.069 94.0899 195.766 91.9231 197.42 92.6769C199.834 93.7781 200.345 96.51 200.152 99.1605Z" fill="#8E7ADC" fill-opacity="0.49"/>
<path d="M236.285 129.959C237.996 129.635 240.692 128.805 241.156 132.413C241.368 134.056 239.584 134.561 238.66 133.953C236.397 132.464 232.123 135.3 231.574 131.344C231.191 128.579 234.056 129.965 236.285 129.959Z" fill="#8E7ADC" fill-opacity="0.49"/>
<path d="M206.821 117.947C212.011 116.298 214.29 118.513 215.869 121.811C216.237 122.577 216.288 124.296 214.96 124.218C211.041 123.986 209.739 120.566 206.821 117.947Z" fill="#8E7ADC" fill-opacity="0.49"/>
<path d="M268.763 118.214C270.436 116.669 270.944 113.149 274.289 112.332C275.476 112.042 276.331 113.63 275.697 114.377C273.859 116.544 274.049 120.499 270.224 120.892C268.952 121.023 268.382 120.205 268.763 118.214Z" fill="#8E7ADC" fill-opacity="0.49"/>
<path d="M39.4983 101.953C40.9796 99.2858 42.2609 96.3547 45.1935 95.0331C46.0721 94.6371 48.006 96.0152 47.4571 96.9605C45.9895 99.488 44.4505 102.217 41.5846 103.487C40.5798 103.932 39.6352 103.236 39.4983 101.953Z" fill="#8E7ADC" fill-opacity="0.49"/>
<path d="M47.979 89.9278C49.46 88.1005 50.3249 84.913 53.4461 83.8698C54.5211 83.5106 55.3545 84.9907 54.8371 85.9266C53.4757 88.39 53.0777 91.7854 49.5116 92.3995C48.2381 92.6192 47.6923 91.8385 47.979 89.9278Z" fill="#8E7ADC" fill-opacity="0.49"/>
<path d="M284.128 83.6162C278.667 81.5564 281.471 77.2206 281.233 73.8422C281.216 73.5945 282.123 73.0866 282.632 73.0381C283.582 72.9482 283.982 73.6549 284.115 74.5269C284.565 77.4827 285.041 80.437 284.128 83.6162Z" fill="#8E7ADC" fill-opacity="0.49"/>
<path d="M281.206 69.8003C278.458 68.3835 279.028 65.2134 278.008 62.7989C277.349 61.2379 277.648 60.2084 279.045 60.246C282.648 60.3431 281.452 64.2502 283.152 65.9394C281.367 66.6768 284.169 69.3265 281.206 69.8003Z" fill="#8E7ADC" fill-opacity="0.49"/>
<path d="M345.394 47.4C347.274 46.0329 349.107 46.3087 350.493 47.4364C351.983 48.6492 354.107 49.6457 354.05 52.0249C354.035 52.6394 353.283 53.6591 352.732 53.763C350.586 54.1678 349.647 52.1732 348.288 51.0834C347.088 50.121 345.673 49.1973 345.394 47.4Z" fill="#8E7ADC" fill-opacity="0.49"/>
<path d="M208.075 49.5982C210.248 47.4967 211.07 44.1551 214.14 42.9705C215.271 42.5339 216.216 43.3028 216.071 44.5496C215.674 47.9796 213.105 49.7405 210.389 51.1721C209.193 51.8029 208.825 50.242 208.075 49.5982Z" fill="#8E7ADC" fill-opacity="0.49"/>
<path d="M331.548 38.7402C328.401 38.2998 326.066 36.8162 323.664 35.4704C322.773 34.9712 321.588 34.6078 322.331 33.3465C322.671 32.768 323.822 32.1132 324.343 32.2855C327.491 33.3275 331.666 33.3783 331.548 38.7402Z" fill="#8E7ADC" fill-opacity="0.49"/>
<path d="M110.96 26.6076C112.334 26.7279 113.858 26.55 113.506 27.9452C112.6 31.5344 108.792 31.7552 106.285 33.4721C105.558 33.9705 103.765 32.5397 104.065 32.1175C105.883 29.56 108.144 27.3917 110.96 26.6076Z" fill="#8E7ADC" fill-opacity="0.49"/>
<path d="M296.083 25.3583C296.355 24.9369 296.57 24.3462 296.99 24.0249C297.434 23.6851 298.169 23.3087 298.614 23.4533C301.404 24.361 304.741 23.7685 306.893 26.3609C307.042 26.5399 306.607 27.6138 306.267 27.7242C302.941 28.8008 299.942 27.2099 296.856 26.3886C296.573 26.3127 296.405 25.8052 296.083 25.3583Z" fill="#8E7ADC" fill-opacity="0.49"/>
<path d="M274.79 20.56C276.478 21.1408 279.908 19.6086 279.513 22.591C279.08 25.8677 275.528 23.9137 273.396 24.1914C271.809 24.3985 268.72 25.0244 269.03 22.561C269.385 19.7482 272.646 20.8631 274.79 20.56Z" fill="#8E7ADC" fill-opacity="0.49"/>
<path d="M232.86 12.2265C233.281 10.2748 234.683 10.4254 235.809 10.711C238.414 11.3714 241.136 12.1639 242.163 15.0096C242.549 16.0782 241.32 17.1798 240.305 16.7295C237.632 15.5441 234.566 14.8496 232.86 12.2265Z" fill="#8E7ADC" fill-opacity="0.49"/>
<path d="M31.8581 113.101C33.5871 110.676 34.3644 107.389 37.4074 106.163C38.2985 105.804 39.3814 107.312 38.9646 108.282C37.803 110.988 37.0922 114.282 33.314 114.684C32.3395 114.788 31.9139 114.045 31.8581 113.101Z" fill="#8E7ADC" fill-opacity="0.49"/>
<path d="M193 2.37922C193.84 0.389225 194.993 0.527686 195.908 0.618727C198.454 0.872502 201.234 -0.364893 203.483 1.64521C203.787 1.91719 203.775 3.17887 203.491 3.37461C200.806 5.22463 198.016 3.94626 195.276 3.41936C194.538 3.27749 193.867 2.78739 193 2.37922Z" fill="#8E7ADC" fill-opacity="0.49"/>
<path d="M159.952 4.23539C161.192 4.67769 163.881 3.71949 162.978 5.88892C161.788 8.74797 158.006 7.74918 155.547 8.99758C154.397 9.58137 152.456 8.47142 152.878 7.45518C154.147 4.39963 157.354 4.69969 159.952 4.23539Z" fill="#8E7ADC" fill-opacity="0.49"/>
<path d="M217.778 39.8447C219.685 37.4211 221.937 35.1888 225.172 34.4729C225.826 34.3284 226.769 35.493 227.578 36.054C225.225 38.4446 222.911 40.927 219.385 41.5047C218.5 41.6496 217.946 40.9641 217.778 39.8447Z" fill="#8E7ADC" fill-opacity="0.49"/>
<path d="M114.501 25.1587C116.657 22.4169 118.682 21.25 120.778 20.0957C122.14 19.3461 123.426 18.5901 124.383 20.3225C125.364 22.0986 123.524 22.4445 122.654 23.4285C120.558 25.7994 118.121 25.6014 114.501 25.1587Z" fill="#8E7ADC" fill-opacity="0.49"/>
<path d="M281.405 22.4352C285.543 21.3109 288.61 21.5582 291.695 22.1754C292.812 22.3988 293.44 23.0205 293.368 24.2416C293.301 25.3678 292.466 25.4688 291.678 25.4699C288.374 25.4748 285.058 25.4612 281.405 22.4352Z" fill="#8E7ADC" fill-opacity="0.49"/>
<path d="M272.266 50.1073C272.257 48.233 272.883 47.3928 274.112 47.84C277.249 48.9822 277.749 51.9843 278.438 54.7071C278.728 55.8546 277.905 56.828 276.656 56.3967C273.437 55.2841 274.194 51.5055 272.266 50.1073Z" fill="#8E7ADC" fill-opacity="0.49"/>
<path d="M23.6369 126.029C24.6042 124.294 25.0384 123.426 25.5532 122.609C26.8054 120.622 27.5098 118.091 30.1306 117.378C30.989 117.145 31.8077 117.844 31.565 118.796C30.8681 121.531 29.9626 124.231 27.2109 125.638C26.5683 125.966 25.6868 125.827 23.6369 126.029Z" fill="#8E7ADC" fill-opacity="0.49"/>
<path d="M336.948 39.0816C339.68 39.7136 342.697 40.7416 344.071 43.8882C344.61 45.121 343.082 45.418 342.092 45.272C338.812 44.7876 336.084 43.1174 334.467 40.3148C333.843 39.2322 335.571 39.1268 336.948 39.0816Z" fill="#8E7ADC" fill-opacity="0.49"/>
<path d="M232.948 33.7638C230.584 34.3521 229.124 33.1087 229.456 32.3553C230.709 29.5126 234.003 29.3608 236.434 28.1022C237.74 27.4262 239.166 28.9291 238.641 30.0436C237.422 32.6345 234.232 32.5765 232.948 33.7638Z" fill="#8E7ADC" fill-opacity="0.49"/>
<path d="M93.9116 39.5839C95.8671 37.9319 97.2858 34.8995 100.62 34.4944C101.96 34.3316 102.178 35.8255 101.82 36.7347C100.64 39.7326 97.8207 40.6976 95.0735 41.5508C94.206 41.8201 93.6374 41.0421 93.9116 39.5839Z" fill="#8E7ADC" fill-opacity="0.49"/>
<path d="M271.807 45.3501C267.665 43.7383 266.254 40.6247 264.686 37.499C269.922 37.0798 270.946 38.1598 271.807 45.3501Z" fill="#8E7ADC" fill-opacity="0.49"/>
<path d="M55.705 79.4162C57.9355 77.8621 58.2665 73.9394 62.0814 73.78C63.1865 73.7338 64.6806 74.5129 63.8601 75.3035C61.8129 77.276 61.156 80.7788 57.7526 81.2454C56.7777 81.3789 55.6466 81.2234 55.705 79.4162Z" fill="#8E7ADC" fill-opacity="0.49"/>
<path d="M218.52 126.952C218.718 125.594 219.174 124.66 220.392 124.778C223.318 125.063 225.954 126.161 227.603 128.673C228.089 129.413 227.484 131.014 226.206 130.756C223.306 130.171 220.563 129.066 218.52 126.952Z" fill="#8E7ADC" fill-opacity="0.49"/>
<path d="M82.8083 49.5718C85.1029 47.1384 86.8717 44.4512 89.8013 43.2722C91.1062 42.7472 91.4688 44.2877 91.2044 45.2485C90.2712 48.6371 87.2757 49.8108 84.4364 51.0129C84.1564 51.132 83.3921 50.1067 82.8083 49.5718Z" fill="#8E7ADC" fill-opacity="0.49"/>
<path d="M197.846 88.6806C194.924 89.2936 194.455 87.6029 194.571 85.2639C194.686 82.9557 194.212 80.3223 196.708 79.0341C198.054 78.3387 198.778 79.6399 199.039 80.9342C197.665 83.3661 199.438 86.2824 197.846 88.6806Z" fill="#8E7ADC" fill-opacity="0.49"/>
<path d="M189.194 0.346673C189.99 0.671385 190.852 1.35419 190.401 2.08707C188.953 4.43516 181.37 4.70144 179.724 2.47588C179.504 2.17886 180.265 1.15692 180.571 0.470703C183.436 -0.235241 186.314 -0.0364561 189.194 0.346673Z" fill="#8E7ADC" fill-opacity="0.49"/>
<path d="M219.567 6.7611C223.989 4.38114 226.895 6.40261 229.807 8.03793C230.004 8.1487 229.657 10.0526 229.344 10.1212C225.718 10.9182 222.822 9.39938 219.567 6.7611Z" fill="#8E7ADC" fill-opacity="0.49"/>
<path d="M258.551 25.4312C257.81 25.4281 257.069 25.4251 256.329 25.4224C253.676 23.7507 255.647 22.4246 256.987 22.0945C259.994 21.3541 263.121 21.4117 267.277 22.2868C264.037 25.1823 261.175 24.9593 258.551 25.4312Z" fill="#8E7ADC" fill-opacity="0.49"/>
<path d="M248.352 133.416C247.17 133.038 244.521 133.976 245.205 131.96C246.323 128.666 250.201 130.271 252.675 129.15C253.808 128.637 254.935 128.753 254.61 130.17C253.838 133.534 250.907 133.213 248.352 133.416Z" fill="#8E7ADC" fill-opacity="0.49"/>
<path d="M139.411 12.5184C139.891 11.644 140.066 10.8333 140.431 10.7366C143.235 9.99122 145.518 7.106 148.8 8.5361C149.227 8.72235 149.551 10.465 149.336 10.6077C146.422 12.5495 143.33 13.8677 139.411 12.5184Z" fill="#8E7ADC" fill-opacity="0.49"/>
<path d="M196.554 72.1756C198.206 70.7474 196.483 67.0102 200.068 66.4409C201.383 66.2318 201.863 67.4317 201.398 68.4627C200.397 70.6837 201.447 74.0765 198.251 74.9964C196.476 75.5077 196.717 73.7044 196.554 72.1756Z" fill="#8E7ADC" fill-opacity="0.49"/>
<path d="M75.7753 60.9269C74.5098 61.0104 73.8502 60.4455 73.972 59.5749C74.4366 56.2455 77.3977 54.8522 79.5936 52.9882C80.5871 52.1449 81.5097 53.5708 81.3325 54.5506C80.7389 57.8376 77.3973 58.7643 75.7753 60.9269Z" fill="#8E7ADC" fill-opacity="0.49"/>
</svg>
